<svg xmlns="http://www.w3.org/2000/svg" xml:space="preserve" id="레이어_1" x="0px" y="0px" version="1.1" viewBox="0 0 686 99.1"><style>.st0{fill:#0023cc}</style><path d="M75.4 98.3c-.3.3-.7.4-1.1.4-24.3-3.2-43-24-43-49.1q0-2.7.3-5.4c30.1 2.2 37.3 3.3 41 4.1 4.6 1 17.5 5.5 17.5 20.6.1 13.2-10.5 25.2-14.7 29.4M80.8 0C56.6 0 36.4 17.5 32.2 40.5h96.5c.4 0 .7-.4.7-.8C124.8 17.1 104.8 0 80.8 0m.4 99.1c27.3 0 49.2-22.2 49.2-49.6 0-1.6-.1-3.7-.3-5.4-.1-.5-.7-.7-1-.3L78.9 98.6c-.2.2 0 .5.2.5zM1.5 40.5c-2.2 0-1.6 1.4-.3 1.5 12.2.8 22.2 1.5 30.5 2.1.1-1.2.3-2.5.5-3.7-17.3.1-30.1.1-30.7.1m30.7 0H1.5c-2.2 0-1.6 1.4-.3 1.5 12.2.8 22.2 1.5 30.5 2.1.1-1.1.3-2.3.5-3.6M212.8 25.1h-32.9v49.3h12.5V58.1h19.4c8.4 0 15.5-6.8 15.5-15.2v-3.6c0-7.9-6.7-14.2-14.5-14.2m2.2 17c0 3.3-2.7 5.9-5.9 5.9h-16.7V35.1h16.7c3.3 0 5.9 2.7 5.9 5.9zm62.3 32.2h13.4L269.6 25h-16l-21.1 49.3h13.4l4.7-10.9h18.8c2 0 3.8 1.2 4.5 3zm-22.5-20.8 6.8-15.9 6.8 15.9zM405 74.3h13.4L397.3 25h-16.099999999999998l-21.1 49.3h13.4l4.7-10.9H397c2 0 3.8 1.2 4.5 3zm-22.5-20.8 6.8-15.9 6.8 15.9zm131.2 20.8h13.4L506 25h-15.999999999999998l-21.1 49.3h13.4l4.7-10.9h18.8c2 0 3.8 1.2 4.5 3zm-22.5-20.8 6.8-15.9 6.8 15.9zm97 20.8h13.4L580.5 25h-16.099999999999998l-21.1 49.3h13.4l4.7-10.9h18.8c2 0 3.8 1.2 4.5 3zm-22.5-20.8 6.8-15.9 6.8 15.9zm-219.6 7.7c-1.6-3.7-5.1-6.2-9-6.7 7.2-1.9 12.3-7.1 12.3-15.2 0-7.9-6.4-14.2-14.2-14.2H302v49.3h12.5V57.6H325c4 0 7.5 2.4 9 6.1l4.3 10.7h13.6zm-31.6-26.1h16c3.3 0 5.9 2.7 5.9 5.9 0 3.9-3.1 7-7 7h-14.9zm365.6 26.1c-1.6-3.7-5.1-6.2-9-6.7 7.2-1.9 12.3-7.1 12.3-15.2 0-7.9-6.4-14.2-14.2-14.2H636v49.3h12.5V57.6H659c4 0 7.5 2.4 9 6.1l4.3 10.7H686zm-31.6-26.1h16c3.3 0 5.9 2.7 5.9 5.9 0 3.9-3.1 7-7 7h-14.9zm-26.1 39.2h-12.5V25.1h12.5zm-154-39H450v39.1h-12.5V35.3h-18.4V25.1h49.3z" class="st0"/></svg>